<?xml version="1.0" standalone="no"?><!DOCTYPE svg PUBLIC "-//W3C//DTD SVG 1.1//EN" "http://www.w3.org/Graphics/SVG/1.1/DTD/svg11.dtd"><svg t="1712847255852" class="icon" viewBox="0 0 1024 1024" version="1.1" xmlns="http://www.w3.org/2000/svg" p-id="3971" xmlns:xlink="http://www.w3.org/1999/xlink" width="200" height="200"><path d="M581.447 155.152c0 58.34 46.057 104.397 104.398 104.397 58.34 0 104.397-46.057 104.397-104.397S744.185 50.754 685.845 50.754 581.447 96.811 581.447 155.152z m300.91 322.4l-165.804-85.973 3.065-18.425c9.207-42.993-21.49-85.973-64.482-95.18-12.283-3.076-27.597-3.159-42.992 6.13L470.896 339.38c-6.142 3.065-15.513 6.658-27.632 21.49L338.867 462.19c-15.349 21.491-9.207 49.135 9.206 61.406 18.425 15.349 46.057 9.219 61.406-9.206l82.907-70.624 55.264-15.349-24.567 132.03c-3.065 12.283-3.065 21.49 0 33.773L455.56 763.112l-89.037 64.482c-21.49 15.349-30.709 46.057-15.348 70.624 12.283 21.49 45.223 27.89 67.547 15.349l125.888-89.038c12.283-9.206 21.49-21.49 27.631-33.773l55.276-122.823 106.922 101.32 6.142 6.143 46.057 159.661c7.88 28.513 38.025 45.4 67.195 36.545 29.5-9.007 38.835-31.789 31.061-64.189l-48.64-183.43c-0.776-11.332-12.777-25.353-18.919-31.495L688.922 554.317l12.283-58.34 147.39 64.482c21.49 12.283 47.877 5.12 60.16-16.37 11.838-24.544 2.913-49.968-26.398-66.538z" p-id="3972"></path><path d="M351.831 786.493l90.33-173.425c3.616-7.222 0-18.06-7.223-25.283l-242.064-119.23c-7.222-3.604-18.06 0-25.283 7.223l-90.33 173.424c-3.604 7.223 0 18.062 7.223 25.284l242.064 119.217c7.222 3.629 18.061 0.024 25.283-7.21z" p-id="3973"></path></svg>